# xmcd
#
# Track frame offsets:
#	150
#	30920
#	44170
#	54492
#	81015
#	99490
#	110480
#	126882
#	144402
#	168752
#	191832
#	201575
#	218695
#	244352
#	258280
#	274990
#	288547
#	307450
#	312205
#	326597
#
# Disc length: 4576 seconds
#
# Revision: 2
# Processed by: cddbd v1.5PL3 Copyright (c) Steve Scherf et al.
# Submitted via: CDmax 1.9
#
DISCID=3611de14
DTITLE=The Yardbirds and Sonny Boy Williamson - The Complete Crawdaddy Recording
DTITLE=s
DYEAR=2003
DGENRE=Blues
TTITLE0=The Yardbirds - Smokestack Lightning
TTITLE1=The Yardbirds - You Can't Judge A Book By Looking At The Cover
TTITLE2=The Yardbirds - Let It Rock
TTITLE3=The Yardbirds - I Wish You Would
TTITLE4=The Yardbirds - Who Do You Love
TTITLE5=The Yardbirds - Honey In Your Hips
TTITLE6=Sonny Boy Williamson and The Yardbirds - Bye Bye Bird
TTITLE7=Sonny Boy Williamson and The Yardbirds - Mister Downchild
TTITLE8=Sonny Boy Williamson and The Yardbirds - The River Rhine
TTITLE9=Sonny Boy Williamson and The Yardbirds - 23 Hours Too Long
TTITLE10=Sonny Boy Williamson and The Yardbirds - A Lost Care
TTITLE11=Sonny Boy Williamson and The Yardbirds - Pontiac Blues
TTITLE12=Sonny Boy Williamson and The Yardbirds - Take It Easy Baby (Version 1)
TTITLE13=Sonny Boy Williamson and The Yardbirds - Out On The Water Coast
TTITLE14=Sonny Boy Williamson and The Yardbirds - I Don't Care No More
TTITLE15=Sonny Boy Williamson and The Yardbirds - Western Arizona
TTITLE16=Sonny Boy Williamson and The Yardbirds - Take It Easy Baby (Version 2)
TTITLE17=Sonny Boy Williamson and The Yardbirds - Slow Walk
TTITLE18=Sonny Boy Williamson and The Yardbirds - Highway 69
TTITLE19=Sonny Boy Williamson and The Yardbirds - My Little Cabin
EXTD=
EXTT0=
EXTT1=
EXTT2=
EXTT3=
EXTT4=
EXTT5=
EXTT6=
EXTT7=
EXTT8=
EXTT9=
EXTT10=
EXTT11=
EXTT12=
EXTT13=
EXTT14=
EXTT15=
EXTT16=
EXTT17=
EXTT18=
EXTT19=
PLAYORDER=
